<svg width="37" height="35" viewBox="0 0 37 35" fill="none" xmlns="http://www.w3.org/2000/svg">
<path d="M24.6696 23.4343H1.23609C1.02079 23.4348 0.809114 23.3789 0.622111 23.2722C0.435109 23.1655 0.279297 23.0117 0.170168 22.8261C0.0610394 22.6405 0.00239688 22.4296 7.19295e-05 22.2143C-0.00225303 21.999 0.0518206 21.7869 0.156916 21.599L11.8737 0.632093C11.9807 0.440438 12.1369 0.280814 12.3262 0.169698C12.5155 0.0585818 12.7311 0 12.9506 0C13.1701 0 13.3856 0.0585818 13.5749 0.169698C13.7642 0.280814 13.9204 0.440438 14.0274 0.632093L25.7442 21.599C25.8491 21.7865 25.9032 21.9982 25.901 22.2131C25.8989 22.428 25.8407 22.6387 25.7321 22.8241C25.6235 23.0096 25.4684 23.1635 25.282 23.2705C25.0956 23.3775 24.8846 23.434 24.6696 23.4343Z" fill="#ED2643"/>
<path d="M24.6695 9.86755C23.8261 9.86737 22.9849 9.95312 22.1589 10.1235L27.8994 20.3965C28.214 20.9596 28.3759 21.5952 28.369 22.2401C28.3622 22.8851 28.1869 23.5171 27.8605 24.0735C27.534 24.6298 27.0678 25.0911 26.5081 25.4117C25.9484 25.7323 25.3146 25.901 24.6695 25.901H12.9011C13.5849 28.0754 14.858 30.0178 16.5789 31.5125C18.2997 33.0072 20.4012 33.9958 22.6499 34.3685C24.8986 34.7412 27.2066 34.4834 29.3177 33.6238C31.4288 32.7642 33.2604 31.3363 34.6091 29.4988C35.9579 27.6613 36.771 25.4859 36.9582 23.2142C37.1455 20.9425 36.6996 18.6634 35.6699 16.6298C34.6403 14.5962 33.0672 12.8877 31.1254 11.694C29.1836 10.5003 26.9489 9.86812 24.6695 9.86755Z" fill="#ED2643"/>
</svg>
