<svg width="43" height="43" viewBox="0 0 43 43" fill="none" xmlns="http://www.w3.org/2000/svg">
<path d="M10.5311 21.0833C10.5311 26.9044 15.2664 31.6398 21.0875 31.6398C26.9087 31.6398 31.644 26.9044 31.644 21.0833C31.644 15.2622 26.9087 10.5269 21.0875 10.5269C15.2664 10.5269 10.5311 15.2622 10.5311 21.0833ZM21.0875 14.7436C24.5832 14.7436 27.4273 17.5877 27.4273 21.0833C27.4273 24.5789 24.5832 27.4231 21.0875 27.4231C17.5919 27.4231 14.7478 24.5789 14.7478 21.0833C14.7478 17.5877 17.5919 14.7436 21.0875 14.7436ZM18.975 35.8417H23.1917V42.1667H18.975V35.8417ZM18.975 0H23.1917V6.325H18.975V0ZM0 18.975H6.325V23.1917H0V18.975ZM35.8417 18.975H42.1667V23.1917H35.8417V18.975Z" fill="#ED2643"/>
<path d="M4.68262 34.4987L9.15228 30.0248L12.1356 33.006L7.66591 37.4798L4.68262 34.4987Z" fill="#ED2643"/>
<path d="M30.0269 9.15858L34.5007 4.68469L37.4819 7.66588L33.008 12.1398L30.0269 9.15858Z" fill="#ED2643"/>
<path d="M9.15845 12.142L4.68457 7.66807L7.66786 4.68689L12.1375 9.16077L9.15845 12.142Z" fill="#ED2643"/>
<path d="M37.4819 34.5009L34.5007 37.482L30.0269 33.0082L33.008 30.027L37.4819 34.5009Z" fill="#ED2643"/>
</svg>
