<svg width="43" height="43" viewBox="0 0 43 43" fill="none" xmlns="http://www.w3.org/2000/svg">
<path d="M4.86111 28.3334C10.8832 34.354 20.3725 34.774 26.887 29.609L28.2443 30.9649L27.117 32.0915L36.3218 41.2956C35.9792 41.8374 35.8309 42.2545 36.0022 42.4243L36.506 42.9274C37.3251 43.748 43.7471 37.3239 42.928 36.5047L42.4242 36.0024C42.2543 35.8318 41.8379 35.9787 41.2976 36.3213L32.0914 27.1172L30.9648 28.2438L29.6081 26.8871C34.7724 20.372 34.3531 10.882 28.3332 4.86057C21.8517 -1.62019 11.3426 -1.62019 4.86111 4.86057C-1.62109 11.3435 -1.61965 21.8519 4.86111 28.3334V28.3334ZM6.81688 6.81777C12.2176 1.4163 20.9774 1.4163 26.3767 6.81777C31.7782 12.2178 31.7782 20.9776 26.3767 26.3776C20.9759 31.7798 12.2191 31.7784 6.81688 26.3776C1.41756 20.9761 1.41612 12.2192 6.81688 6.81777Z" fill="#ED2643"/>
<path d="M4.7896 15.6965C5.38495 17.278 6.31067 18.7143 7.50503 19.9097C12.1726 24.5781 19.7427 24.5781 24.4125 19.9076C26.3861 17.9399 27.6068 15.3421 27.8618 12.5668C29.4786 16.8302 28.5784 21.8304 25.1456 25.2632C20.4766 29.9322 12.9065 29.9322 8.23746 25.2632C5.61878 22.6467 4.4714 19.1164 4.7896 15.6965Z" fill="#ED2643"/>
</svg>
