<svg width="210" height="35" viewBox="0 0 210 35" fill="none" xmlns="http://www.w3.org/2000/svg">
<path fill-rule="evenodd" clip-rule="evenodd" d="M9.85454 25.8841H0V24.4534H0.0991923C0.463616 24.4555 0.82804 24.4275 1.18815 24.3703C1.50406 24.3272 1.80595 24.214 2.07226 24.0383C2.33425 23.8507 2.54126 23.5951 2.66957 23.2986C2.83575 22.8931 2.91296 22.4567 2.89598 22.0188V11.402C2.91199 10.989 2.83459 10.5777 2.66957 10.1988C2.53563 9.91199 2.3257 9.66738 2.06255 9.49148C1.79219 9.31973 1.48879 9.2066 1.17198 9.15941C0.817183 9.10316 0.458414 9.07576 0.0991923 9.07746H0V7.62732H5.24426L5.90841 11.002H6.07445C6.29548 10.4899 6.52297 10.0101 6.75586 9.56157C6.97857 9.12588 7.26734 8.72727 7.61193 8.37988C7.96768 8.03104 8.39214 7.76007 8.85831 7.58419C9.46171 7.37327 10.0986 7.27461 10.7376 7.29308C11.9796 7.29308 12.9036 7.51303 13.5085 7.95616C14.1015 8.36802 14.4433 9.0559 14.4142 9.7772C14.4195 10.1168 14.3602 10.4543 14.2384 10.7724C14.1198 11.0732 13.929 11.3384 13.681 11.5454C13.3874 11.7797 13.0475 11.9491 12.6837 12.0425C12.206 12.1697 11.7133 12.229 11.2195 12.2182C11.2195 11.2769 11.0869 10.5977 10.8206 10.1815C10.5554 9.76642 10.0885 9.55833 9.42219 9.55833C9.01626 9.55348 8.61946 9.67894 8.29011 9.91629C7.9397 10.1729 7.6432 10.4953 7.41678 10.8651C7.15283 11.2892 6.94071 11.7435 6.78497 12.2182C6.61785 12.7228 6.48308 13.2371 6.38389 13.7578C6.27823 14.2883 6.20276 14.8252 6.15747 15.3643C6.11542 15.8448 6.09312 16.3268 6.09062 16.8091V22.1644C6.07445 22.5773 6.15208 22.9892 6.31704 23.3687C6.44858 23.6523 6.6599 23.8927 6.92513 24.0587C7.19791 24.2205 7.50088 24.3251 7.81463 24.3671C8.17043 24.4189 8.52838 24.4447 8.88742 24.4426H9.85454V25.883V25.8841ZM32.8952 22.1752C32.8736 22.5859 32.9448 22.9978 33.1044 23.3784C33.2348 23.663 33.4461 23.9024 33.7114 24.0684C33.9852 24.2302 34.2871 24.3348 34.6019 24.3768C34.9577 24.4286 35.3157 24.4544 35.6747 24.4534H35.7739V25.883H30.3809L29.9324 23.1229H29.7663C29.4707 23.7005 29.0861 24.228 28.6267 24.6862C27.8665 25.4334 26.8923 25.9249 25.8396 26.0922C25.3113 26.1774 24.7776 26.2194 24.2428 26.2183C23.4274 26.2321 22.6158 26.1029 21.845 25.8367C21.1647 25.5944 20.5576 25.1824 20.0811 24.6399C19.5713 24.0347 19.1997 23.3257 18.9921 22.5622C18.724 21.5826 18.5973 20.5696 18.6158 19.5541V11.3858C18.632 10.9725 18.5546 10.5608 18.3894 10.1815C18.2553 9.89513 18.0454 9.65091 17.7824 9.47531C17.512 9.30355 17.2086 9.19042 16.8918 9.14323C16.537 9.08663 16.1783 9.05886 15.819 9.06021H15.7198V7.62624H21.8115V19.3978C21.804 20.0662 21.8622 20.7326 21.9873 21.3881C22.0822 21.9099 22.2784 22.407 22.5695 22.8512C22.8412 23.2501 23.2229 23.5649 23.6682 23.7569C24.2151 23.9785 24.8023 24.0835 25.3922 24.0652C26.0609 24.0841 26.7248 23.9476 27.3318 23.6663C27.86 23.4073 28.3162 23.0222 28.6601 22.545C29.0283 22.0216 29.2912 21.4317 29.4342 20.808C29.6071 20.0718 29.6903 19.3173 29.6822 18.5611V11.5185C29.6988 11.0782 29.622 10.6395 29.4569 10.2311C29.3301 9.9314 29.1235 9.67222 28.8596 9.48178C28.5932 9.30683 28.2912 9.19339 27.9755 9.1497C27.6153 9.09268 27.2511 9.06491 26.8865 9.06668H26.7938V7.62732H32.8855L32.8952 22.1741V22.1752Z" fill="#353535"/>
<path d="M45.7255 8.99119C45.1817 8.97079 44.6396 9.06444 44.1341 9.26612C43.7514 9.43001 43.4225 9.6974 43.1853 10.0392C42.9481 10.395 42.7907 10.7982 42.726 11.2198C42.6456 11.7091 42.6066 12.2043 42.6096 12.7001C41.86 12.7467 41.1126 12.5796 40.4543 12.2182C39.9605 11.898 39.7136 11.3449 39.7136 10.5599C39.6974 10.0208 39.8678 9.49254 40.1955 9.06343C40.5531 8.63103 41.0084 8.28992 41.5238 8.06827C42.1467 7.78924 42.8047 7.59627 43.4797 7.49468C44.2667 7.36961 45.0646 7.30815 45.8624 7.31139C46.7815 7.29762 47.6986 7.40161 48.5913 7.62083C49.3104 7.79333 49.9778 8.13404 50.5385 8.61598C51.0776 9.1141 51.4787 9.74268 51.7029 10.4403C51.9854 11.3287 52.118 12.2581 52.0954 13.1896V22.0188C52.0869 22.4156 52.126 22.8119 52.2118 23.1994C52.2722 23.4754 52.3973 23.732 52.5784 23.9487C52.7552 24.1439 52.986 24.283 53.2415 24.3477C53.5595 24.4307 53.8862 24.4695 54.2151 24.463H54.3143V25.8927H49.691L49.1595 22.9676H48.877C48.5234 23.4452 48.1784 23.8873 47.8441 24.2938C47.5228 24.6819 47.1541 25.0291 46.7444 25.3256C46.3314 25.6167 45.8743 25.8409 45.3902 25.9897C44.7972 26.1622 44.1826 26.2442 43.5659 26.2312C42.8508 26.2353 42.1397 26.1235 41.4602 25.9002C40.8333 25.6974 40.2595 25.3575 39.7804 24.9051C39.2909 24.4285 38.913 23.8493 38.6742 23.2091C38.392 22.4348 38.2568 21.6147 38.2753 20.7908C38.2753 18.9837 38.919 17.6425 40.2052 16.767C41.4915 15.8915 43.4419 15.4096 46.0576 15.3233L48.8878 15.2241V13.181C48.8905 12.6166 48.857 12.0527 48.7875 11.4926C48.7365 11.0252 48.5897 10.5734 48.3563 10.1653C48.1258 9.78689 47.788 9.48553 47.3859 9.29955C46.8624 9.07418 46.295 8.96881 45.7255 8.99119V8.99119ZM41.5961 20.9331C41.5961 21.9972 41.8182 22.7929 42.2613 23.3191C42.7034 23.8452 43.3999 24.1083 44.3497 24.1083C44.9898 24.1174 45.6257 24.0047 46.2236 23.7762C46.7642 23.5678 47.2528 23.244 47.6554 22.8274C48.0598 22.3994 48.3692 21.8894 48.5611 21.332C48.7854 20.7024 48.8975 20.0382 48.8943 19.3708V16.6107L46.712 16.7109C45.8926 16.7325 45.0808 16.8533 44.2904 17.0689C43.7133 17.225 43.1765 17.5034 42.7163 17.8851C42.3195 18.2301 42.0241 18.6743 41.8592 19.1724C41.671 19.7439 41.5778 20.3423 41.5831 20.9439L41.5972 20.9331H41.5961Z" fill="#353535"/>
<path fill-rule="evenodd" clip-rule="evenodd" d="M65.8853 24.4534V25.883H56.7154V24.4534H56.9978C57.3633 24.4555 57.7278 24.4275 58.0868 24.3703C58.4027 24.3272 58.7046 24.214 58.9709 24.0383C59.234 23.8507 59.4399 23.5951 59.5693 23.2986C59.7355 22.8931 59.8127 22.4567 59.7957 22.0188V11.402C59.8117 10.989 59.7343 10.5777 59.5693 10.1988C59.4351 9.91185 59.2247 9.66723 58.9612 9.49148C58.6908 9.31973 58.3874 9.2066 58.0706 9.1594C57.7158 9.10316 57.3571 9.07576 56.9978 9.07746H56.8987V7.62731H62.4081L62.8567 10.3874H63.0227C63.3286 9.82261 63.7062 9.29967 64.1462 8.83164C64.5084 8.44996 64.93 8.13082 65.3947 7.88284C65.8335 7.65642 66.3057 7.49901 66.7931 7.41923C67.3074 7.33297 67.8281 7.28984 68.3511 7.292C69.1694 7.27906 69.9834 7.41168 70.7554 7.68338C71.4422 7.93244 72.0589 8.34322 72.5527 8.88123C73.0799 9.47854 73.4659 10.1858 73.6848 10.9513C73.9651 11.9292 74.0967 12.9438 74.0773 13.9595V22.008C74.0618 22.4432 74.1269 22.8774 74.2692 23.2889C74.377 23.5811 74.5646 23.8388 74.8104 24.0286C75.0584 24.2032 75.3441 24.3164 75.6449 24.3606C75.991 24.4178 76.3425 24.4458 76.694 24.4436H76.8104V25.8733H70.8654V14.1266C70.8745 13.4574 70.8076 12.7893 70.6659 12.1352C70.5545 11.609 70.3361 11.1114 70.0244 10.6732C69.7258 10.2756 69.3253 9.966 68.8653 9.7772C68.3099 9.55761 67.7158 9.45272 67.1187 9.46884C66.4386 9.44532 65.7641 9.59955 65.1618 9.91628C64.6429 10.2083 64.2055 10.6257 63.8896 11.1303C63.5558 11.6715 63.3221 12.2682 63.1995 12.8921C63.0579 13.582 62.9878 14.2848 62.9904 14.9891V22.1709C62.9731 22.5838 63.0507 22.9957 63.2168 23.3752C63.3462 23.6598 63.5586 23.8992 63.8238 24.0652C64.0966 24.2269 64.3995 24.3315 64.7133 24.3736C65.0691 24.4253 65.4281 24.4512 65.7861 24.4501L65.8863 24.4534H65.8853Z" fill="#353535"/>
<path d="M95.6861 8.33988C95.687 8.57433 95.6499 8.80737 95.5761 9.02992C95.5061 9.23908 95.3928 9.431 95.2441 9.59488C95.0899 9.762 94.899 9.89246 94.6866 9.97548C94.43 10.0725 94.1583 10.1167 93.8856 10.1081C93.8856 9.9744 93.8683 9.8407 93.836 9.71025C93.8016 9.57553 93.742 9.44857 93.6602 9.33612C93.574 9.21644 93.4601 9.1195 93.3281 9.05364C93.1507 8.97423 92.9574 8.9366 92.7632 8.94366C92.4985 8.94052 92.2347 8.97427 91.9793 9.04393C91.7367 9.1194 91.5071 9.23153 91.2979 9.37493C91.7044 9.88383 92.0279 10.4531 92.2553 11.0644C92.7601 12.6143 92.7601 14.2844 92.2553 15.8343C92.0139 16.5275 91.6251 17.1602 91.1157 17.6888C90.5766 18.2322 89.9222 18.6483 89.2019 18.9103C88.3352 19.2201 87.4193 19.3696 86.499 19.3513H86.0504L85.5523 19.3341C85.3863 19.3341 85.231 19.3233 85.0876 19.3017L84.7383 19.2586C84.5205 19.3664 84.3103 19.4882 84.1076 19.623C83.906 19.7448 83.7208 19.8919 83.5566 20.0607C83.4057 20.2279 83.2838 20.4176 83.1976 20.6246C83.1065 20.8469 83.0614 21.0853 83.065 21.3255C83.0542 21.5562 83.1092 21.7869 83.2235 21.9885C83.3313 22.1578 83.4854 22.2926 83.6655 22.3799C83.8747 22.4791 84.1 22.5416 84.3297 22.5632C84.61 22.5912 84.8903 22.6063 85.1706 22.6063H89.0327C89.9142 22.5841 90.793 22.7128 91.6311 22.9869C92.2822 23.2054 92.8767 23.5659 93.3713 24.0425C93.8273 24.4921 94.1691 25.0452 94.3675 25.6543C94.578 26.3129 94.6821 27.0008 94.6759 27.6921C94.6906 28.605 94.5059 29.5102 94.1346 30.3444C93.761 31.1396 93.1893 31.8253 92.4742 32.3358C91.6216 32.9337 90.6635 33.3647 89.6505 33.6059C88.3351 33.9261 86.9852 34.076 85.6321 34.0544C83.2558 34.0544 81.4844 33.6124 80.3178 32.7272C79.747 32.3101 79.2877 31.7591 78.9801 31.1226C78.6725 30.4862 78.5261 29.7839 78.5539 29.0775C78.5408 28.4775 78.66 27.8818 78.9032 27.3331C79.1264 26.8479 79.4455 26.4112 79.8423 26.0522C80.2442 25.6921 80.7019 25.3997 81.1976 25.1864C81.7151 24.9632 82.2574 24.8015 82.8116 24.7055C82.5698 24.6001 82.3414 24.4661 82.1313 24.3066C81.6588 23.9513 81.2999 23.4662 81.0984 22.9104C80.9843 22.5912 80.928 22.2542 80.9323 21.9152C80.9169 21.2886 81.1033 20.6737 81.4639 20.161C81.9275 19.5723 82.5043 19.0828 83.1609 18.7206C82.6808 18.5257 82.2391 18.2471 81.8563 17.8979C81.4745 17.551 81.1483 17.1473 80.8892 16.7011C80.6236 16.2394 80.4223 15.7435 80.2908 15.2273C80.15 14.6858 80.0797 14.1285 80.0816 13.569C80.0664 12.6682 80.2012 11.7711 80.4806 10.9146C80.7233 10.1645 81.1389 9.48202 81.6938 8.92206C82.2487 8.3621 82.9274 7.94035 83.6752 7.69082C84.5813 7.38585 85.5334 7.23994 86.4893 7.25955C87.2755 7.25905 88.0576 7.37383 88.8106 7.60025C89.1243 7.69729 89.4316 7.81589 89.727 7.95929C89.9653 8.0671 90.1885 8.20727 90.3912 8.37331C90.5572 8.19648 90.7513 8.00026 90.9734 7.78354C91.203 7.56036 91.4553 7.3609 91.7238 7.18623C92.0074 6.99971 92.3112 6.84599 92.6295 6.72801C92.968 6.60402 93.326 6.54256 93.6861 6.54472C93.9891 6.53933 94.2899 6.58784 94.5767 6.68811C94.8085 6.77113 95.0209 6.90159 95.2009 7.06979C95.3659 7.22828 95.4942 7.4202 95.5761 7.63368C95.6581 7.86009 95.6947 8.09945 95.6861 8.33988V8.33988ZM81.3032 28.8759C81.2998 29.3488 81.3674 29.8194 81.5038 30.2722C81.6331 30.6991 81.8757 31.084 82.2046 31.387C82.5927 31.7288 83.0542 31.98 83.5523 32.1202C84.252 32.3142 84.9755 32.4037 85.7022 32.3854C86.7184 32.4073 87.7335 32.3037 88.7243 32.077C89.4062 31.9239 90.0495 31.6326 90.6144 31.221C91.0618 30.8877 91.4069 30.4358 91.6106 29.9164C91.8047 29.3859 91.8995 28.8242 91.8931 28.2581C91.9071 27.818 91.8301 27.3797 91.6667 26.9708C91.528 26.6453 91.2972 26.3676 91.0025 26.1719C90.6665 25.9629 90.291 25.8253 89.8995 25.7675C89.4047 25.685 88.9036 25.646 88.4019 25.6511H85.0477C84.582 25.6511 84.1173 25.6931 83.659 25.7772C83.2312 25.8519 82.8232 26.0133 82.4601 26.2516C82.0962 26.5026 81.8058 26.8461 81.6191 27.2468C81.3908 27.7583 81.282 28.3151 81.3011 28.8749H81.3043L81.3032 28.8759ZM83.2978 13.4957C83.2978 14.9491 83.5383 16.0122 84.0202 16.6871C84.5043 17.3621 85.2946 17.7006 86.3922 17.7028C86.8742 17.7168 87.3529 17.6316 87.8003 17.4537C88.1798 17.2898 88.5044 17.0246 88.7405 16.6871C89.0077 16.2874 89.1867 15.8353 89.2656 15.361C89.3798 14.7271 89.4332 14.0837 89.4251 13.4397C89.4251 11.9087 89.1912 10.7787 88.7243 10.0488C88.2575 9.31887 87.4682 8.95337 86.3599 8.95121C85.2526 8.95121 84.4677 9.32426 84.0041 10.0725C83.5415 10.8197 83.3011 11.9604 83.2838 13.4957H83.2968H83.2978Z" fill="#353535"/>
<path d="M115.162 16.7196C115.185 18.1519 115.032 19.5817 114.704 20.9762C114.463 22.0414 114.011 23.0476 113.376 23.9358C112.813 24.6922 112.06 25.2862 111.194 25.6577C110.245 26.0458 109.228 26.2356 108.204 26.2151C107.604 26.2218 107.006 26.1493 106.425 25.9995C105.431 25.7439 104.536 25.2 103.851 24.4361C103.52 24.0657 103.232 23.6587 102.993 23.2232H102.777L102.179 25.8766H96.7158V24.4469H96.981C97.3465 24.4491 97.7098 24.421 98.0699 24.3639C98.3859 24.3208 98.6877 24.2065 98.9541 24.0318C99.216 23.8442 99.4231 23.5887 99.5524 23.2922C99.7184 22.8863 99.7953 22.4495 99.7778 22.0113V3.7653C99.7939 3.35193 99.7165 2.94025 99.5514 2.56098C99.4173 2.27459 99.2073 2.03037 98.9444 1.85477C98.6753 1.68043 98.3713 1.56709 98.0538 1.52269C97.6985 1.47143 97.34 1.4462 96.981 1.44722H96.7158V0.0100098H102.993V6.26344C102.992 7.19178 102.97 8.11998 102.926 9.04729L102.86 10.7055H102.993C103.231 10.2063 103.518 9.73194 103.85 9.28881C104.487 8.44406 105.381 7.82859 106.398 7.53461C106.981 7.36644 107.587 7.28471 108.194 7.29202C109.218 7.27163 110.236 7.46133 111.184 7.84944C112.049 8.21925 112.801 8.80902 113.366 9.56159C114.001 10.4416 114.452 11.4399 114.694 12.4975C115.025 13.8797 115.183 15.2986 115.162 16.7207V16.7196ZM107.623 9.4721C106.858 9.44686 106.098 9.59774 105.402 9.91307C104.805 10.2053 104.31 10.6678 103.976 11.2392C103.586 11.94 103.329 12.7077 103.218 13.5034C103.057 14.5643 102.981 15.6371 102.993 16.711C102.983 17.7622 103.059 18.8134 103.219 19.8517C103.334 20.6571 103.593 21.4356 103.986 22.1482C104.32 22.7434 104.816 23.2307 105.418 23.5542C106.114 23.8929 106.882 24.0558 107.656 24.0286C108.329 24.0494 108.994 23.8853 109.579 23.5542C110.131 23.2116 110.58 22.7257 110.878 22.1482C111.25 21.4258 111.5 20.6485 111.618 19.8452C111.784 18.7973 111.862 17.7385 111.851 16.6776C111.862 15.6166 111.784 14.5568 111.618 13.5088C111.502 12.7213 111.251 11.9595 110.878 11.2565C110.57 10.6912 110.11 10.2241 109.549 9.90876C108.954 9.60112 108.289 9.45081 107.619 9.4721H107.623V9.4721ZM126.813 26.2151C125.675 26.2328 124.546 26.0205 123.492 25.5909C122.531 25.1895 121.678 24.5653 121.005 23.7698C120.293 22.9064 119.763 21.9077 119.447 20.8339C119.069 19.5529 118.887 18.2222 118.906 16.8867C118.906 13.7061 119.56 11.3125 120.868 9.7039C122.177 8.09634 124.042 7.29202 126.462 7.29202C127.473 7.27693 128.478 7.45375 129.424 7.80955C130.28 8.1384 131.045 8.66615 131.656 9.34918C132.304 10.0866 132.789 10.9526 133.078 11.8904C133.419 13.0338 133.58 14.2232 133.556 15.4161V16.9794H122.204C122.206 18.0576 122.333 19.1315 122.579 20.1806C122.766 20.9719 123.103 21.7202 123.575 22.3833C123.979 22.9385 124.522 23.3774 125.149 23.6544C125.83 23.9369 126.562 24.076 127.299 24.062C127.852 24.0664 128.403 23.9994 128.939 23.8625C129.417 23.7407 129.877 23.5628 130.312 23.3321C130.703 23.1236 131.069 22.8699 131.401 22.5763C131.697 22.3153 131.958 22.0156 132.175 21.6868C132.358 21.7795 132.512 21.924 132.617 22.1019C132.759 22.3251 132.833 22.586 132.826 22.8512C132.809 23.2466 132.682 23.6293 132.46 23.9563C132.171 24.3941 131.791 24.765 131.345 25.0442C130.765 25.4133 130.133 25.6938 129.471 25.8766C128.606 26.1164 127.711 26.2304 126.814 26.2151H126.813ZM126.399 9.11306C125.82 9.09045 125.244 9.22085 124.731 9.49112C124.218 9.76139 123.785 10.162 123.476 10.6527C122.791 11.6834 122.39 13.1853 122.271 15.1584H130.112C130.119 14.3333 130.052 13.5092 129.913 12.6958C129.806 12.0295 129.593 11.3846 129.282 10.7853C129.019 10.2807 128.626 9.85581 128.142 9.55512C127.614 9.24808 127.01 9.09497 126.399 9.11306Z" fill="#ED2643"/>
<path fill-rule="evenodd" clip-rule="evenodd" d="M136.153 24.4534C136.519 24.4555 136.883 24.4275 137.242 24.3704C137.558 24.3272 137.86 24.214 138.126 24.0383C138.389 23.8507 138.595 23.5951 138.725 23.2986C138.891 22.8932 138.968 22.4567 138.951 22.0188V3.77285C138.967 3.35948 138.89 2.9478 138.725 2.56853C138.591 2.28161 138.38 2.03698 138.117 1.86124C137.848 1.68728 137.544 1.57431 137.226 1.53024C136.871 1.47861 136.512 1.45303 136.153 1.45369H135.735V0.0100098H142.179V22.0081C142.162 22.4458 142.235 22.8814 142.395 23.2889C142.52 23.5876 142.727 23.8442 142.992 24.0286C143.262 24.2022 143.566 24.3154 143.883 24.3606C144.243 24.4178 144.607 24.4458 144.972 24.4437H145.403V25.8733H135.735V24.4437L136.153 24.4545V24.4534Z" fill="#ED2643"/>
<path d="M154.979 8.99119C154.436 8.97079 153.893 9.06445 153.388 9.26613C153.006 9.43001 152.676 9.6974 152.439 10.0392C152.202 10.395 152.046 10.7982 151.98 11.2198C151.9 11.7091 151.861 12.2043 151.865 12.7001C151.115 12.747 150.367 12.5798 149.708 12.2182C149.214 11.898 148.967 11.3449 148.967 10.5599C148.951 10.0209 149.122 9.49254 149.449 9.06343C149.807 8.63103 150.262 8.28992 150.778 8.06827C151.401 7.78915 152.059 7.59618 152.735 7.49468C153.522 7.36961 154.318 7.30816 155.115 7.31139C156.035 7.29744 156.953 7.40143 157.846 7.62083C158.564 7.79334 159.232 8.13404 159.792 8.61599C160.339 9.11195 160.748 9.74053 160.978 10.4403C161.26 11.3287 161.392 12.2581 161.37 13.1896V22.0188C161.361 22.4156 161.4 22.8119 161.486 23.1994C161.546 23.4754 161.672 23.732 161.852 23.9487C162.029 24.1439 162.26 24.283 162.516 24.3477C162.833 24.4307 163.161 24.4695 163.488 24.463H163.589V25.8927H158.959L158.427 22.9676H158.145C157.79 23.4452 157.446 23.8873 157.112 24.2938C156.784 24.6756 156.409 25.0146 155.996 25.3029C155.582 25.594 155.125 25.8183 154.641 25.966C154.048 26.1385 153.433 26.2215 152.818 26.2086C152.102 26.2123 151.391 26.1001 150.712 25.8765C150.084 25.674 149.51 25.334 149.03 24.8814C148.541 24.405 148.164 23.8261 147.925 23.1865C147.643 22.4122 147.507 21.592 147.526 20.7681C147.526 18.9611 148.17 17.6198 149.456 16.7433C150.742 15.8678 152.69 15.3913 155.299 15.3136L158.128 15.2144V13.181C158.131 12.6166 158.098 12.0527 158.028 11.4926C157.977 11.0252 157.831 10.5734 157.597 10.1653C157.375 9.79165 157.049 9.49077 156.659 9.29955C156.13 9.07131 155.555 8.96589 154.979 8.99119V8.99119ZM150.85 20.9331C150.85 21.9972 151.072 22.7929 151.515 23.3191C151.957 23.8452 152.655 24.1083 153.605 24.1083C154.244 24.1172 154.88 24.0046 155.478 23.7762C156.018 23.5678 156.507 23.244 156.909 22.8274C157.315 22.3994 157.623 21.8894 157.815 21.332C158.039 20.7024 158.151 20.0382 158.148 19.3708V16.6107L155.966 16.7109C155.147 16.7325 154.335 16.8533 153.544 17.0689C152.967 17.225 152.43 17.5034 151.97 17.8851C151.575 18.2301 151.278 18.6743 151.113 19.1724C150.93 19.7447 150.841 20.343 150.851 20.9439V20.9331H150.85ZM171.938 7.6273V26.1482C171.971 27.4388 171.803 28.7251 171.44 29.9639C171.17 30.8712 170.691 31.7027 170.042 32.392C169.447 32.9925 168.712 33.4351 167.904 33.6793C167.021 33.9419 166.104 34.0705 165.183 34.061H164.631V32.448H164.88C165.439 32.4576 165.995 32.3527 166.512 32.1397C167.005 31.92 167.424 31.5615 167.717 31.1078C168.088 30.5192 168.342 29.8647 168.467 29.1811C168.656 28.1968 168.742 27.1973 168.726 26.1946V11.3858C168.743 10.9725 168.666 10.5609 168.501 10.1815C168.366 9.89498 168.156 9.65074 167.893 9.47529C167.623 9.30368 167.32 9.19055 167.003 9.14321C166.648 9.08661 166.29 9.05885 165.93 9.0602H165.83V7.62622H171.938V7.6273ZM168.249 2.10703C168.239 1.76906 168.29 1.43214 168.398 1.11187C168.481 0.862812 168.622 0.635316 168.806 0.447713C168.978 0.281674 169.19 0.161996 169.421 0.0994619C169.916 -0.033154 170.439 -0.033154 170.935 0.0994619C171.166 0.161996 171.377 0.282752 171.55 0.447713C171.735 0.636394 171.877 0.862812 171.965 1.11187C172.175 1.7587 172.175 2.45535 171.965 3.10219C171.877 3.35017 171.735 3.57658 171.55 3.76527C171.377 3.92699 171.169 4.04559 170.942 4.11028C170.448 4.25428 169.922 4.25428 169.428 4.11028C169.197 4.04224 168.987 3.91943 168.814 3.75233C168.628 3.56531 168.488 3.33854 168.404 3.08925C168.295 2.7734 168.243 2.44098 168.249 2.10703V2.10703ZM184.394 8.99119C183.85 8.97079 183.308 9.06445 182.803 9.26613C182.42 9.43001 182.091 9.6974 181.853 10.0392C181.616 10.395 181.459 10.7982 181.395 11.2198C181.314 11.7091 181.275 12.2043 181.278 12.7001C180.528 12.747 179.781 12.5798 179.122 12.2182C178.629 11.898 178.382 11.3449 178.382 10.5599C178.366 10.0209 178.537 9.49254 178.863 9.06343C179.221 8.6309 179.677 8.28977 180.193 8.06827C180.816 7.78924 181.473 7.59628 182.148 7.49468C182.935 7.36961 183.733 7.30816 184.53 7.31139C185.45 7.29753 186.367 7.40153 187.26 7.62083C187.979 7.79334 188.647 8.13404 189.206 8.61599C189.748 9.11284 190.152 9.74125 190.379 10.4403C190.661 11.3287 190.793 12.2581 190.771 13.1896V22.0188C190.762 22.4156 190.801 22.8119 190.887 23.1994C190.946 23.4754 191.072 23.732 191.253 23.9487C191.43 24.1439 191.661 24.283 191.917 24.3477C192.235 24.4307 192.561 24.4695 192.89 24.463H192.989V25.8927H188.373L187.841 22.9676H187.55C187.194 23.4452 186.85 23.8873 186.516 24.2938C186.195 24.6819 185.826 25.0291 185.416 25.3256C185.003 25.6167 184.546 25.841 184.062 25.9897C183.469 26.1622 182.855 26.2442 182.238 26.2313C181.523 26.2353 180.812 26.1235 180.132 25.9003C179.505 25.6976 178.931 25.3576 178.451 24.9051C177.962 24.4284 177.585 23.8492 177.346 23.2091C177.064 22.4348 176.929 21.6147 176.947 20.7908C176.947 18.9837 177.591 17.6425 178.877 16.767C180.163 15.8915 182.112 15.4139 184.719 15.3373L187.549 15.2371V13.181C187.552 12.6166 187.519 12.0527 187.45 11.4926C187.399 11.0252 187.252 10.5734 187.019 10.1653C186.792 9.78881 186.458 9.48765 186.061 9.29955C185.536 9.07323 184.966 8.96784 184.394 8.99119V8.99119ZM180.265 20.9331C180.265 21.9972 180.487 22.7929 180.93 23.3191C181.372 23.8452 182.069 24.1083 183.019 24.1083C183.659 24.1174 184.294 24.0047 184.892 23.7762C185.433 23.5677 185.921 23.2439 186.323 22.8274C186.728 22.3994 187.038 21.8894 187.23 21.332C187.453 20.7024 187.566 20.0382 187.562 19.3708V16.6107L185.381 16.7109C184.561 16.7325 183.748 16.8533 182.959 17.0689C182.382 17.225 181.845 17.5034 181.385 17.8851C180.988 18.2301 180.693 18.6743 180.528 19.1724C180.344 19.7446 180.255 20.343 180.265 20.9439V20.9331Z" fill="#ED2643"/>
<path fill-rule="evenodd" clip-rule="evenodd" d="M205.419 25.8841H195.579V24.4533H195.678C196.044 24.4555 196.408 24.4274 196.767 24.3703C197.083 24.3272 197.385 24.214 197.652 24.0382C197.915 23.8506 198.121 23.5951 198.25 23.2986C198.416 22.8931 198.493 22.4567 198.476 22.0188V11.402C198.492 10.989 198.415 10.5777 198.25 10.1987C198.116 9.91182 197.905 9.66719 197.642 9.49145C197.371 9.31969 197.068 9.20657 196.751 9.15937C196.396 9.10313 196.038 9.07573 195.678 9.07743H195.579V7.62728H200.833L201.498 11.002H201.664C201.886 10.4898 202.112 10.0101 202.345 9.56153C202.568 9.12577 202.857 8.72716 203.202 8.37985C203.56 8.02884 203.987 7.75669 204.457 7.58092C205.061 7.36987 205.698 7.27121 206.337 7.28981C207.579 7.28981 208.502 7.50976 209.108 7.95181C209.696 8.36907 210.031 9.05695 209.998 9.77717C210.002 10.1168 209.943 10.4543 209.821 10.7723C209.703 11.0731 209.511 11.3384 209.263 11.5454C208.97 11.7795 208.631 11.9489 208.267 12.0424C207.79 12.1696 207.297 12.2289 206.802 12.2182C206.802 11.2769 206.669 10.5977 206.403 10.1815C206.138 9.76639 205.672 9.5583 205.006 9.5583C204.6 9.55345 204.203 9.67891 203.874 9.91625C203.523 10.1729 203.227 10.4952 202.999 10.865C202.736 11.2893 202.524 11.7435 202.369 12.2182C202.2 12.7227 202.064 13.237 201.963 13.7578C201.859 14.2883 201.783 14.8252 201.737 15.3643C201.695 15.8448 201.673 16.3268 201.671 16.809V22.1643C201.655 22.5773 201.731 22.9892 201.897 23.3687C202.028 23.6522 202.239 23.8927 202.504 24.0587C202.777 24.2204 203.08 24.325 203.395 24.3671C203.75 24.4188 204.109 24.4447 204.468 24.4425H205.417V25.883L205.419 25.8841Z" fill="#ED2643"/>
</svg>
